# Blender 5.0.1
# www.blender.org
mtllib selector.mtl
o Cube
v 0.900000 -0.010000 1.100000
v 0.900000 0.010000 1.100000
v 0.900000 -0.010000 0.900000
v 0.900000 0.010000 0.900000
v 1.100000 -0.010000 1.100000
v 1.100000 0.010000 1.100000
v 1.100000 -0.010000 0.900000
v 1.100000 0.010000 0.900000
v 0.900000 0.010000 0.586680
v 0.900000 -0.010000 0.586680
v 1.100000 -0.010000 0.586680
v 1.100000 0.010000 0.586680
v 0.579398 -0.010000 0.900000
v 0.579398 -0.010000 1.100000
v 0.579398 0.010000 1.100000
v 0.579398 0.010000 0.900000
vn -0.0000 1.0000 -0.0000
vn 1.0000 -0.0000 -0.0000
vn -0.0000 -0.0000 1.0000
vn -0.0000 -1.0000 -0.0000
vn -0.0000 -0.0000 -1.0000
vn -1.0000 -0.0000 -0.0000
vt 0.096380 0.096380
vt 0.000000 0.250877
vt 0.000000 0.096380
vt 0.096380 0.000000
vt 0.247368 0.096380
vt 0.742104 0.347257
vt 0.838484 0.250877
vt 0.838484 0.347257
vt 0.494736 0.752632
vt 0.591116 0.656252
vt 0.591116 0.752632
vt 0.343748 0.250877
vt 0.247368 0.154498
vt 0.343748 0.154498
vt 0.000000 -0.000000
vt 0.674657 0.849011
vt 0.771037 0.752632
vt 0.771037 0.849011
vt 0.289139 0.903620
vt 0.385519 0.752632
vt 0.385519 0.903620
vt 0.742104 0.498245
vt 0.494736 0.250877
vt 0.674657 0.945391
vt 0.771037 0.945391
vt 0.343748 0.000000
vt 0.880255 0.749123
vt 0.783875 0.903620
vt 0.783875 0.749123
vt 0.494736 0.656252
vt 0.591116 0.501755
vt 0.096380 0.250877
vt 0.247368 0.000000
vt 0.742104 0.250877
vt 0.247368 0.250877
vt 0.674657 0.752632
vt 0.289139 0.752632
vt 0.838484 0.498245
vt 0.494736 0.154498
vt 0.247368 -0.000000
vt 0.880255 0.903620
vt 0.494736 0.501755
s 0
f 4/1/1 15/2/1 2/3/1
f 8/4/1 9/5/1 4/1/1
f 8/6/2 5/7/2 7/8/2
f 6/9/3 1/10/3 5/11/3
f 7/12/4 1/13/4 3/14/4
f 4/1/1 6/15/1 8/4/1
f 9/16/5 11/17/5 10/18/5
f 4/19/6 10/20/6 3/21/6
f 7/8/2 12/22/2 8/6/2
f 3/14/4 11/23/4 7/12/4
f 15/24/6 13/18/6 14/25/6
f 1/13/4 13/26/4 3/14/4
f 3/27/5 16/28/5 4/29/5
f 2/30/3 14/31/3 1/10/3
f 4/1/1 16/32/1 15/2/1
f 8/4/1 12/33/1 9/5/1
f 8/6/2 6/34/2 5/7/2
f 6/9/3 2/30/3 1/10/3
f 7/12/4 5/35/4 1/13/4
f 4/1/1 2/3/1 6/15/1
f 9/16/5 12/36/5 11/17/5
f 4/19/6 9/37/6 10/20/6
f 7/8/2 11/38/2 12/22/2
f 3/14/4 10/39/4 11/23/4
f 15/24/6 16/16/6 13/18/6
f 1/13/4 14/40/4 13/26/4
f 3/27/5 13/41/5 16/28/5
f 2/30/3 15/42/3 14/31/3
o Cube.001
v 1.100000 -0.010000 -0.900000
v 1.100000 0.010000 -0.900000
v 0.900000 -0.010000 -0.900000
v 0.900000 0.010000 -0.900000
v 1.100000 -0.010000 -1.100000
v 1.100000 0.010000 -1.100000
v 0.900000 -0.010000 -1.100000
v 0.900000 0.010000 -1.100000
v 0.586680 0.010000 -0.900000
v 0.586680 -0.010000 -0.900000
v 0.586680 -0.010000 -1.100000
v 0.586680 0.010000 -1.100000
v 0.900000 -0.010000 -0.579398
v 1.100000 -0.010000 -0.579398
v 1.100000 0.010000 -0.579398
v 0.900000 0.010000 -0.579398
vn -0.0000 1.0000 -0.0000
vn -0.0000 -0.0000 -1.0000
vn 1.0000 -0.0000 -0.0000
vn -0.0000 -1.0000 -0.0000
vn -1.0000 -0.0000 -0.0000
vn -0.0000 -0.0000 1.0000
vt 0.096380 0.347257
vt 0.000000 0.501755
vt 0.000000 0.347257
vt 0.096380 0.250877
vt 0.247368 0.347257
vt 0.783875 0.598134
vt 0.880255 0.501755
vt 0.880255 0.598134
vt 0.591116 0.752632
vt 0.687495 0.656252
vt 0.687495 0.752632
vt 0.591116 0.250877
vt 0.494736 0.154498
vt 0.591116 0.154498
vt 0.000000 0.250877
vt 0.976634 0.501755
vt 0.976634 0.598134
vt 0.385519 0.903620
vt 0.481898 0.752632
vt 0.481898 0.903620
vt 0.783875 0.749123
vt 0.742104 0.250877
vt 0.880255 0.694514
vt 0.976634 0.598134
vt 0.976634 0.694514
vt 0.591116 -0.000000
vt 0.096380 0.752632
vt 0.000000 0.907130
vt 0.000000 0.752632
vt 0.591116 0.656252
vt 0.687495 0.501755
vt 0.096380 0.501755
vt 0.247368 0.250877
vt 0.783875 0.501755
vt 0.494736 0.250877
vt 0.880255 0.501755
vt 0.385519 0.752632
vt 0.880255 0.749123
vt 0.742104 0.154498
vt 0.880255 0.598134
vt 0.494736 -0.000000
vt 0.096380 0.907130
vt 0.591116 0.501755
s 0
f 20/43/7 31/44/7 18/45/7
f 24/46/7 25/47/7 20/43/7
f 24/48/8 21/49/8 23/50/8
f 22/51/9 17/52/9 21/53/9
f 23/54/10 17/55/10 19/56/10
f 20/43/7 22/57/7 24/46/7
f 25/50/11 27/58/11 26/59/11
f 20/60/12 26/61/12 19/62/12
f 23/50/8 28/63/8 24/48/8
f 19/56/10 27/64/10 23/54/10
f 31/65/12 29/66/12 30/67/12
f 17/55/10 29/68/10 19/56/10
f 19/69/11 32/70/11 20/71/11
f 18/72/9 30/73/9 17/52/9
f 20/43/7 32/74/7 31/44/7
f 24/46/7 28/75/7 25/47/7
f 24/48/8 22/76/8 21/49/8
f 22/51/9 18/72/9 17/52/9
f 23/54/10 21/77/10 17/55/10
f 20/43/7 18/45/7 22/57/7
f 25/50/11 28/78/11 27/58/11
f 20/60/12 25/79/12 26/61/12
f 23/50/8 27/80/8 28/63/8
f 19/56/10 26/81/10 27/64/10
f 31/65/12 32/82/12 29/66/12
f 17/55/10 30/83/10 29/68/10
f 19/69/11 29/84/11 32/70/11
f 18/72/9 31/85/9 30/73/9
o Cube.002
v -1.100000 -0.010000 0.900000
v -1.100000 0.010000 0.900000
v -0.900000 -0.010000 0.900000
v -0.900000 0.010000 0.900000
v -1.100000 -0.010000 1.100000
v -1.100000 0.010000 1.100000
v -0.900000 -0.010000 1.100000
v -0.900000 0.010000 1.100000
v -0.586680 0.010000 0.900000
v -0.586680 -0.010000 0.900000
v -0.586680 -0.010000 1.100000
v -0.586680 0.010000 1.100000
v -0.900000 -0.010000 0.579398
v -1.100000 -0.010000 0.579398
v -1.100000 0.010000 0.579398
v -0.900000 0.010000 0.579398
vn -0.0000 1.0000 -0.0000
vn -0.0000 -0.0000 1.0000
vn -1.0000 -0.0000 -0.0000
vn -0.0000 -1.0000 -0.0000
vn 1.0000 -0.0000 -0.0000
vn -0.0000 -0.0000 -1.0000
vt 0.591116 0.347257
vt 0.494736 0.501755
vt 0.494736 0.347257
vt 0.591116 0.250877
vt 0.742104 0.347257
vt 0.838484 0.096380
vt 0.934864 0.000000
vt 0.934864 0.096380
vt 0.687495 0.752632
vt 0.783875 0.656252
vt 0.783875 0.752632
vt 0.343748 0.501755
vt 0.247368 0.405375
vt 0.343748 0.405375
vt 0.494736 0.250877
vt 0.880255 0.790893
vt 0.976634 0.694514
vt 0.976634 0.790893
vt 0.481898 0.903620
vt 0.578278 0.752632
vt 0.578278 0.903620
vt 0.838484 0.247368
vt 0.880255 0.887273
vt 0.976634 0.887273
vt 0.343748 0.250877
vt 0.192759 0.752632
vt 0.096380 0.907130
vt 0.096380 0.752632
vt 0.687495 0.656252
vt 0.783875 0.501755
vt 0.591116 0.501755
vt 0.742104 0.250877
vt 0.838484 -0.000000
vt 0.247368 0.501755
vt 0.880255 0.694514
vt 0.481898 0.752632
vt 0.934864 0.247368
vt 0.494736 0.405375
vt 0.247368 0.250877
vt 0.192759 0.907130
vt 0.687495 0.501755
s 0
f 36/86/13 47/87/13 34/88/13
f 40/89/13 41/90/13 36/86/13
f 40/91/14 37/92/14 39/93/14
f 38/94/15 33/95/15 37/96/15
f 39/97/16 33/98/16 35/99/16
f 36/86/13 38/100/13 40/89/13
f 41/101/17 43/102/17 42/103/17
f 36/104/18 42/105/18 35/106/18
f 39/93/14 44/107/14 40/91/14
f 35/99/16 43/87/16 39/97/16
f 47/108/18 45/103/18 46/109/18
f 33/98/16 45/110/16 35/99/16
f 35/111/17 48/112/17 36/113/17
f 34/114/15 46/115/15 33/95/15
f 36/86/13 48/116/13 47/87/13
f 40/89/13 44/117/13 41/90/13
f 40/91/14 38/118/14 37/92/14
f 38/94/15 34/114/15 33/95/15
f 39/97/16 37/119/16 33/98/16
f 36/86/13 34/88/13 38/100/13
f 41/101/17 44/120/17 43/102/17
f 36/104/18 41/121/18 42/105/18
f 39/93/14 43/122/14 44/107/14
f 35/99/16 42/123/16 43/87/16
f 47/108/18 48/101/18 45/103/18
f 33/98/16 46/124/16 45/110/16
f 35/111/17 45/125/17 48/112/17
f 34/114/15 47/126/15 46/115/15
o Cube.003
v -0.900000 -0.010000 -1.100000
v -0.900000 0.010000 -1.100000
v -0.900000 -0.010000 -0.900000
v -0.900000 0.010000 -0.900000
v -1.100000 -0.010000 -1.100000
v -1.100000 0.010000 -1.100000
v -1.100000 -0.010000 -0.900000
v -1.100000 0.010000 -0.900000
v -0.900000 0.010000 -0.586680
v -0.900000 -0.010000 -0.586680
v -1.100000 -0.010000 -0.586680
v -1.100000 0.010000 -0.586680
v -0.579398 -0.010000 -0.900000
v -0.579398 -0.010000 -1.100000
v -0.579398 0.010000 -1.100000
v -0.579398 0.010000 -0.900000
vn -0.0000 1.0000 -0.0000
vn -1.0000 -0.0000 -0.0000
vn -0.0000 -0.0000 -1.0000
vn -0.0000 -1.0000 -0.0000
vn -0.0000 -0.0000 1.0000
vn 1.0000 -0.0000 -0.0000
vt 0.096380 0.598134
vt 0.000000 0.752632
vt 0.000000 0.598134
vt 0.096380 0.501755
vt 0.247368 0.598134
vt 0.838484 0.343748
vt 0.934864 0.247368
vt 0.934863 0.343748
vt 0.742104 0.250877
vt 0.838484 0.154498
vt 0.838484 0.250877
vt 0.343748 0.752632
vt 0.247368 0.656252
vt 0.343748 0.656252
vt 0.000000 0.501755
vt 0.880255 0.983653
vt 0.976634 0.887273
vt 0.976634 0.983653
vt 0.578278 0.903620
vt 0.674657 0.752632
vt 0.674657 0.903620
vt 0.838484 0.494736
vt 0.494736 0.752632
vt 0.289139 1.000000
vt 0.385519 0.903620
vt 0.385518 1.000000
vt 0.343748 0.501755
vt 0.289139 0.752632
vt 0.192759 0.907130
vt 0.192759 0.752632
vt 0.742104 0.154498
vt 0.838484 -0.000000
vt 0.096380 0.752632
vt 0.247368 0.501755
vt 0.838484 0.247368
vt 0.247368 0.752632
vt 0.880255 0.887273
vt 0.578278 0.752632
vt 0.934863 0.494736
vt 0.494736 0.656252
vt 0.289139 0.903620
vt 0.289139 0.907130
vt 0.742104 -0.000000
s 0
f 52/127/19 63/128/19 50/129/19
f 56/130/19 57/131/19 52/127/19
f 56/132/20 53/133/20 55/134/20
f 54/135/21 49/136/21 53/137/21
f 55/138/22 49/139/22 51/140/22
f 52/127/19 54/141/19 56/130/19
f 57/142/23 59/143/23 58/144/23
f 52/145/24 58/146/24 51/147/24
f 55/134/20 60/148/20 56/132/20
f 51/140/22 59/149/22 55/138/22
f 63/150/24 61/151/24 62/152/24
f 49/139/22 61/153/22 51/140/22
f 51/154/23 64/155/23 52/156/23
f 50/157/21 62/158/21 49/136/21
f 52/127/19 64/159/19 63/128/19
f 56/130/19 60/160/19 57/131/19
f 56/132/20 54/161/20 53/133/20
f 54/135/21 50/157/21 49/136/21
f 55/138/22 53/162/22 49/139/22
f 52/127/19 50/129/19 54/141/19
f 57/142/23 60/163/23 59/143/23
f 52/145/24 57/164/24 58/146/24
f 55/134/20 59/165/20 60/148/20
f 51/140/22 58/166/22 59/149/22
f 63/150/24 64/167/24 61/151/24
f 49/139/22 62/160/22 61/153/22
f 51/154/23 61/168/23 64/155/23
f 50/157/21 63/169/21 62/158/21
